<svg width="800" height="610" viewBox="0 0 800 610" fill="none" xmlns="http://www.w3.org/2000/svg">
<g clip-path="url(#clip0_53_323)">
<path d="M485.094 183.539C486.089 183.585 487.074 183.323 487.916 182.79C488.758 182.257 489.416 181.478 489.8 180.559C490.184 179.64 490.277 178.625 490.065 177.651C489.853 176.677 489.347 175.793 488.615 175.116C488.493 174.629 488.405 174.279 488.283 173.792C488.326 173.686 488.37 173.58 488.415 173.475C492.889 162.807 508.051 162.88 512.487 173.564C516.424 183.046 521.436 192.545 522.67 202.571C523.214 207.002 522.985 211.495 521.993 215.848C531.24 195.677 536.041 173.753 536.072 151.563C536.074 145.995 535.765 140.431 535.146 134.897C534.634 130.361 533.924 125.856 533.016 121.384C528.059 97.1202 517.418 74.3778 501.966 55.0248C494.487 50.9441 488.439 44.669 484.636 37.045C483.258 34.3044 482.285 31.3788 481.745 28.3593C482.589 28.4699 484.926 15.6211 484.29 14.8328C485.466 13.0487 487.57 12.1618 488.854 10.4208C495.241 1.76251 504.039 3.27431 508.632 15.0403C518.444 19.9925 518.539 28.2054 512.519 36.1044C508.688 41.1297 508.162 47.9296 504.801 53.3097C505.147 53.7523 505.507 54.1811 505.852 54.6237C512.173 62.7513 517.682 71.4787 522.3 80.6809C520.994 70.4748 522.923 58.1792 526.211 50.2532C529.955 41.2225 536.971 33.6168 543.15 25.8097C550.572 16.4322 565.791 20.5247 567.099 32.4122C567.112 32.5273 567.124 32.6423 567.136 32.7574C566.218 33.2751 565.32 33.8247 564.441 34.406C563.337 35.1438 562.481 36.198 561.986 37.4304C561.491 38.6628 561.38 40.016 561.667 41.3126C561.955 42.6092 562.627 43.7888 563.596 44.6968C564.565 45.6049 565.786 46.199 567.098 46.4013L567.233 46.4221C566.906 49.7298 566.328 53.0079 565.504 56.2281C573.431 86.8832 556.317 98.0484 531.882 98.55C531.342 98.8266 530.817 99.1031 530.277 99.366C534.917 112.515 537.827 126.212 538.935 140.111C539.562 148.312 539.525 156.549 538.825 164.744L538.866 164.453C540.637 155.341 545.497 147.119 552.628 141.176C563.218 132.477 578.18 129.273 589.605 122.28C595.105 118.914 602.152 123.264 601.192 129.64C601.177 129.742 601.161 129.844 601.146 129.946C599.443 130.639 597.784 131.438 596.181 132.338C595.263 132.856 594.364 133.406 593.485 133.987C592.381 134.725 591.525 135.779 591.03 137.011C590.536 138.244 590.424 139.597 590.712 140.894C590.999 142.19 591.671 143.37 592.64 144.278C593.609 145.186 594.83 145.78 596.143 145.982L596.277 146.003C596.374 146.017 596.457 146.031 596.554 146.045C593.644 152.993 589.559 159.388 584.48 164.951C579.523 191.712 558.235 194.251 535.464 186.458H535.45C532.951 197.315 529.331 207.883 524.648 217.992H486.061C485.922 217.563 485.798 217.12 485.673 216.692C489.245 216.916 492.831 216.703 496.351 216.056C493.488 212.542 490.625 209.002 487.762 205.489C487.698 205.423 487.638 205.354 487.582 205.281C486.13 203.483 484.664 201.699 483.211 199.901L483.211 199.899C483.133 194.388 483.766 188.889 485.092 183.54L485.094 183.539Z" fill="#F2F2F2"/>
<path d="M608.986 84.7848C601.811 58.6257 659.681 36.1938 674.877 57.2597C676.99 54.2648 684.799 52.4456 688.382 53.3644C691.965 54.2831 694.979 56.5799 697.919 58.8033C701.961 61.9085 706.15 65.1241 708.631 69.5891C711.13 74.0357 711.516 80.0993 708.153 83.9579C705.489 87.0264 697.625 89.0109 693.619 89.8194C690.826 90.389 688.474 90.8484 686.453 91.1791C684.617 88.534 683.771 85.3269 684.064 82.1205C682.704 83.0382 681.563 84.2456 680.725 85.6561C679.886 87.0666 679.37 88.6452 679.214 90.2788C679.158 90.9586 701.796 174.25 701.796 174.25C699.076 175.798 696.215 177.084 693.252 178.09C687.389 169.131 682.899 159.346 679.93 149.059C679.248 155.937 679.334 162.871 680.187 169.73C680.641 173.576 681.291 177.397 682.135 181.177C655.235 186.984 614.774 185.073 597.171 160.377C597.168 160.275 597.165 160.173 597.163 160.071C597.149 159.096 596.797 158.156 596.166 157.413C595.536 156.669 594.667 156.168 593.707 155.994C592.748 155.821 591.758 155.987 590.908 156.463C590.057 156.94 589.399 157.697 589.045 158.605C588.618 159.695 588.225 160.638 587.874 161.388C582.747 143.05 589.381 121.828 608.986 84.7848Z" fill="#2F2E41"/>
<path d="M563.21 523.35V524.207C563.177 523.922 563.177 523.635 563.21 523.35Z" fill="#2F2E41"/>
<path d="M589.554 375.307C590.238 375.122 590.934 374.987 591.638 374.903C590.83 375.034 590.135 375.169 589.554 375.307Z" fill="#2F2E41"/>
<path d="M588.944 375.463C589.129 375.411 589.335 375.359 589.554 375.307C589.35 375.361 589.154 375.4 588.944 375.463Z" fill="#2F2E41"/>
<path d="M783.571 609.069H684.968C683.562 607.946 682.584 606.374 682.2 604.616C681.815 602.857 682.047 601.02 682.857 599.413C685.551 593.235 680.272 587.59 680.272 587.59C678.481 585.491 677.235 582.982 676.645 580.285C676.056 577.589 676.141 574.789 676.893 572.133C679.506 563.009 669.268 537.255 669.268 537.255C669.268 537.255 663.749 570.51 656.986 609.069H563.21C561.639 606.393 560.811 603.347 560.811 600.244C560.811 597.141 561.639 594.094 563.21 591.419C568.675 582.152 563.21 580.375 563.21 580.375C563.21 580.375 557.745 570.006 563.21 562.477C568.675 554.949 563.21 524.207 563.21 524.207C563.416 525.566 564.973 523.095 567.37 517.913C571.019 510.03 576.596 495.853 582.231 479.395C586.259 467.648 590.32 454.724 593.714 442.088H593.722C594.612 438.768 595.455 435.478 596.251 432.219C597.808 425.827 599.142 419.616 600.155 413.784C602.355 401.221 603.08 390.43 601.391 383.412C599.991 377.572 596.926 374.351 591.638 374.903C594.471 374.433 598.623 373.988 603.739 373.568C604.661 373.494 605.617 373.42 606.605 373.338C644.761 370.455 726.625 368.799 726.625 368.799L751.7 413.701L783.456 470.581C783.456 470.581 782.591 546.885 783.571 609.069Z" fill="#2F2E41"/>
<path d="M678.326 174.722L620.557 162.468L609.086 185.556L570.459 207.92C570.459 207.92 595.358 309.725 595.216 324.044C594.855 360.396 536.69 441.886 580.624 435.617C624.558 429.348 633.482 403.089 647.586 407.241C660.306 410.986 675.838 427.644 686.236 415.73C696.634 403.816 700.296 417.574 706.871 418.049C709.996 418.275 708.114 403.005 715.976 418.524C723.838 434.043 765.527 413.153 751.397 399.023C727.865 375.491 723.082 202.019 723.082 202.019L696.886 193.959L678.326 174.722Z" fill="#E6E6E6"/>
<path d="M569.366 544.437C571.687 541.669 572.837 538.105 572.57 534.502C572.304 530.9 570.642 527.543 567.938 525.148C567.381 524.669 566.785 524.238 566.157 523.858L575.816 476.453L553.486 463.089L547.275 529.458C545.901 532.185 545.469 535.291 546.045 538.29C546.622 541.29 548.175 544.014 550.463 546.037C551.775 547.176 553.3 548.046 554.948 548.595C556.597 549.145 558.338 549.365 560.071 549.242C561.805 549.12 563.497 548.656 565.052 547.88C566.607 547.103 567.993 546.027 569.132 544.715C569.211 544.623 569.289 544.53 569.366 544.437Z" fill="#A0616A"/>
<path d="M638.698 294.563C638.558 293.039 636.614 292.347 633.921 291.391C631.215 290.558 628.644 289.34 626.285 287.775C620.321 283.467 622.668 278.961 625.914 272.733C626.548 271.522 627.207 270.262 627.825 268.952C629.662 265.072 626.738 249.067 619.118 221.373C616.77 212.847 616.779 206.825 615.156 202.83C613.541 198.835 610.304 196.866 601.482 196.454C590.818 195.916 580.376 199.628 572.445 206.776C572.23 206.965 572.008 207.171 571.794 207.369C571.39 207.748 570.995 208.135 570.608 208.531C563.273 215.909 559.076 225.839 558.894 236.241L558.853 238.012L557.032 322.628L551.917 396.88L544.865 499.165L550.088 499.42L570.929 500.458L573.458 500.582L579.455 475.424L586.671 445.152L589.323 434.031L597.552 399.533L601.391 383.412L603.739 373.568L604.694 369.548L609.357 350.009C609.464 349.597 620.189 307.281 632.553 300.205C637.166 297.569 638.83 296.037 638.698 294.563Z" fill="#E6E6E6"/>
<path d="M777.427 543.933C774.822 541.43 773.296 538.01 773.175 534.4C773.053 530.789 774.345 527.274 776.775 524.602C777.278 524.066 777.824 523.573 778.408 523.128L763.713 477.035L784.479 461.35L797.782 526.668C799.441 529.232 800.204 532.273 799.953 535.317C799.702 538.361 798.45 541.236 796.393 543.494C795.21 544.767 793.788 545.795 792.208 546.519C790.628 547.243 788.921 547.648 787.185 547.712C785.448 547.776 783.715 547.498 782.086 546.892C780.457 546.287 778.963 545.366 777.69 544.184C777.601 544.101 777.514 544.018 777.427 543.933Z" fill="#A0616A"/>
<path d="M787.585 443.916C787.585 443.916 771.39 386.934 776.329 380.766C781.268 374.597 766.681 373.393 772.967 361.904C779.253 350.416 770.577 348.495 770.577 348.495L765.869 322.081L757.452 257.201L757.196 255.272L754.748 236.396C754.064 231.005 752.3 225.807 749.562 221.113C746.823 216.419 743.166 212.325 738.809 209.077C738.587 208.906 738.36 208.743 738.132 208.579C737.096 207.833 736.037 207.142 734.956 206.506C726.876 201.739 717.388 199.937 708.124 201.409C690.667 204.128 696.101 210.638 693.269 228.077C688.669 256.434 687.474 272.657 689.718 276.322C690.474 277.556 691.268 278.737 692.025 279.871C695.923 285.722 698.74 289.943 693.27 294.876C691.091 296.679 688.666 298.163 686.068 299.283C683.497 300.528 681.636 301.421 681.661 302.951C681.69 304.434 683.507 305.773 688.374 307.896C694.27 310.476 700.604 320.233 705.792 330.199C709.907 338.233 713.578 346.487 716.787 354.924L761.374 480.323L768.647 500.774L771.155 500.377L791.757 497.111L796.923 496.293L787.585 443.916Z" fill="#E6E6E6"/>
<path d="M653.953 161.602C679.983 161.602 701.085 140.5 701.085 114.471C701.085 88.4405 679.983 67.339 653.953 67.339C627.923 67.339 606.822 88.4405 606.822 114.471C606.822 140.5 627.923 161.602 653.953 161.602Z" fill="#A0616A"/>
<path d="M583.262 88.4597C576.087 62.3006 633.956 39.8687 649.153 60.9346C651.266 57.9397 659.075 56.1205 662.658 57.0393C666.241 57.958 669.254 60.2548 672.194 62.4781C676.237 65.5834 680.426 68.799 682.907 73.264C685.406 77.7106 685.791 83.7742 682.429 87.6328C679.765 90.7013 671.9 92.6858 667.895 93.4943C665.102 94.0639 662.75 94.5232 660.729 94.854C658.893 92.2089 658.047 89.0018 658.34 85.7954C656.98 86.7131 655.839 87.9205 655 89.331C654.162 90.7415 653.646 92.3201 653.489 93.9536C653.434 94.6335 676.071 177.925 676.071 177.925C673.351 179.473 670.491 180.759 667.527 181.765C661.665 172.806 657.175 163.021 654.206 152.734C653.523 159.612 653.61 166.545 654.463 173.405C654.917 177.251 655.567 181.072 656.411 184.852C629.51 190.659 589.05 188.748 571.447 164.052C571.444 163.95 571.441 163.848 571.438 163.746C571.424 162.771 571.072 161.831 570.442 161.088C569.812 160.344 568.942 159.843 567.983 159.669C567.024 159.496 566.034 159.662 565.183 160.138C564.333 160.615 563.674 161.372 563.32 162.28C562.893 163.37 562.5 164.313 562.15 165.063C557.023 146.725 563.656 125.503 583.262 88.4597Z" fill="#2F2E41"/>
<path d="M349.519 251.319C348.523 251.365 347.538 251.104 346.696 250.571C345.854 250.038 345.197 249.259 344.812 248.34C344.428 247.42 344.335 246.405 344.547 245.431C344.759 244.458 345.265 243.573 345.997 242.897C346.119 242.41 346.207 242.06 346.33 241.573C346.286 241.467 346.242 241.361 346.198 241.255C341.724 230.587 326.562 230.661 322.126 241.344C318.189 250.827 313.176 260.325 311.942 270.351C311.398 274.783 311.628 279.275 312.62 283.628C303.373 263.457 298.571 241.533 298.54 219.344C298.538 213.775 298.847 208.211 299.467 202.678C299.978 198.141 300.688 193.637 301.597 189.165C306.553 164.901 317.194 142.158 332.646 122.805C340.125 118.725 346.174 112.449 349.976 104.825C351.354 102.085 352.328 99.1593 352.867 96.1397C352.023 96.2504 349.686 83.4016 350.322 82.6133C349.146 80.8292 347.042 79.9423 345.758 78.2014C339.372 69.543 330.573 71.0548 325.98 82.8208C316.168 87.773 316.073 95.986 322.094 103.885C325.924 108.91 326.45 115.71 329.811 121.09C329.465 121.533 329.106 121.962 328.76 122.404C322.439 130.532 316.93 139.259 312.312 148.461C313.619 138.255 311.69 125.96 308.401 118.034C304.658 109.003 297.641 101.397 291.462 93.5902C284.04 84.2127 268.821 88.3053 267.513 100.193C267.501 100.308 267.488 100.423 267.476 100.538C268.394 101.056 269.293 101.605 270.172 102.187C271.276 102.924 272.131 103.979 272.626 105.211C273.121 106.443 273.232 107.796 272.945 109.093C272.658 110.39 271.986 111.569 271.016 112.477C270.047 113.385 268.827 113.979 267.514 114.182L267.38 114.203C267.707 117.51 268.284 120.788 269.108 124.009C261.182 154.664 278.295 165.829 302.731 166.33C303.27 166.607 303.796 166.884 304.335 167.147C299.695 180.296 296.785 193.992 295.677 207.892C295.05 216.092 295.087 224.33 295.788 232.524L295.746 232.234C293.976 223.122 289.115 214.9 281.985 208.957C271.394 200.257 256.432 197.054 245.007 190.061C239.508 186.695 232.46 191.045 233.42 197.421C233.435 197.523 233.451 197.624 233.467 197.726C235.17 198.42 236.828 199.219 238.432 200.119C239.35 200.637 240.248 201.186 241.127 201.767C242.231 202.505 243.087 203.559 243.582 204.792C244.077 206.024 244.188 207.377 243.901 208.674C243.613 209.971 242.941 211.15 241.972 212.058C241.003 212.966 239.782 213.561 238.47 213.763L238.335 213.784C238.238 213.797 238.155 213.811 238.059 213.825C240.969 220.773 245.053 227.169 250.133 232.732C255.089 259.492 276.377 262.031 299.149 254.238H299.162C301.661 265.095 305.281 275.663 309.964 285.772H348.552C348.69 285.343 348.815 284.901 348.939 284.472C345.367 284.697 341.781 284.483 338.262 283.836C341.125 280.323 343.988 276.782 346.851 273.269C346.914 273.204 346.974 273.134 347.03 273.062C348.483 271.264 349.949 269.48 351.401 267.682L351.402 267.68C351.479 262.168 350.847 256.67 349.52 251.32L349.519 251.319Z" fill="#F2F2F2"/>
<path d="M169.466 57.2607C168.591 59.3016 141.586 59.0829 140.35 60.9003C130.814 74.9309 165.188 134.628 155.653 148.677L154.324 150.26C157.435 148.826 160.423 147.14 163.259 145.219C163.514 139.468 163.769 133.7 164.042 127.949C166.898 131.603 169.203 135.656 170.884 139.978C173.104 138.413 174.926 135.512 184.442 129.805C188.294 125.573 192.736 121.917 197.629 118.95L169.466 57.2607Z" fill="#2F2E41"/>
<path d="M189.076 172.25C186.096 170.308 182.696 169.106 179.158 168.742C175.62 168.377 172.046 168.862 168.734 170.156C165.421 171.449 162.464 173.514 160.109 176.179C157.754 178.844 156.068 182.032 155.192 185.479L114.155 292.404L43.6181 252.358C43.3084 247.755 41.5489 243.368 38.5919 239.827C35.635 236.286 31.6325 233.772 27.1586 232.646C22.6847 231.52 17.9691 231.84 13.6883 233.56C9.40746 235.28 5.78126 238.312 3.32978 242.22C0.878304 246.128 -0.272507 250.712 0.0424062 255.315C0.357319 259.917 2.12178 264.302 5.08272 267.84C8.04365 271.378 12.0489 273.887 16.5241 275.008C20.9993 276.128 25.7145 275.803 29.9934 274.079C44.8479 289.933 109.248 354.934 135.909 329.537C158.319 308.189 190.659 225.451 198.444 196.881C199.691 192.312 199.456 187.465 197.772 183.039C196.089 178.613 193.044 174.835 189.076 172.25Z" fill="#FFB6B6"/>
<path d="M112.02 334.017L124.97 392.549L219.664 401.114L228.367 350.149L112.02 334.017Z" fill="#FFB6B6"/>
<path d="M256.667 484.114C256.624 484.953 256.572 485.784 256.511 486.623C255.603 498.751 254.565 512.739 253.44 528.067C251.667 552.392 249.686 580.09 247.688 609.069H49.0664L87.5869 493.287C87.5869 493.287 103.141 484.724 95.2221 470.338C87.3035 455.953 102.884 467.416 103.029 446.872C103.174 426.327 117.136 404.47 117.136 404.47L119.429 373.364L120.735 373.39L224.098 375.111L225.984 375.146L229.159 401.849C248.435 424.787 258.268 454.196 256.667 484.114Z" fill="#2F2E41"/>
<path d="M171.122 143.883L218.255 141.455L240.148 176.048C240.148 176.048 281.339 182.934 278.484 231.473C275.628 280.012 228.366 322.604 228.366 322.604L230.387 315.678L226.878 325.704L227.328 331.333L232.115 337.295L232.607 343.461L228.366 353.216C228.918 354.1 229.211 355.121 229.211 356.162C229.212 357.204 228.921 358.226 228.37 359.11C227.82 359.995 227.033 360.708 226.098 361.168C225.163 361.628 224.118 361.816 223.081 361.712L154.977 354.887C153.426 350.622 152.182 345.518 145.967 354.014L139.551 353.393L112.882 350.809L111.312 345.091C110.42 341.841 110.281 338.432 110.905 335.121C111.53 331.809 112.901 328.685 114.916 325.984C112.599 318.73 113.206 310.858 116.607 304.045L116.734 303.789L119.566 301.429C119.566 301.429 88.5815 254.878 124.151 219.817L138.427 195.548L154.401 176.059L171.122 143.883Z" fill="#39476D"/>
<path d="M182.853 123.463C207.537 123.463 227.548 103.452 227.548 78.7675C227.548 54.0826 207.537 34.0717 182.853 34.0717C158.168 34.0717 138.157 54.0826 138.157 78.7675C138.157 103.452 158.168 123.463 182.853 123.463Z" fill="#FFB6B6"/>
<path d="M216.799 143.155C213.16 140.114 210.626 135.955 209.593 131.326C208.766 136.947 208.982 142.672 210.23 148.214C207.809 150.034 205.462 151.763 203.242 153.328C201.561 149.005 199.256 144.953 196.399 141.299C196.126 147.049 195.872 152.818 195.617 158.569C192.781 160.49 189.793 162.176 186.682 163.609L188.01 162.026C197.546 147.977 172.869 122.118 182.405 108.088C185.08 104.157 172.997 73.0929 163.789 71.6916C155.6 70.4542 155.945 72.8199 148.011 74.5487C147.187 71.1124 145.908 67.8014 144.208 64.7036C144.66 68.1555 144.556 71.6576 143.898 75.0764C141.078 75.1856 138.859 73.3883 135.855 72.9291C116.692 69.9993 118.64 49.2719 123.972 42.7024C129.322 36.1511 147.083 34.1858 155.272 32.0565C156.018 31.3287 157.711 31.7836 158.457 31.0921C174.151 16.7293 195.14 14.3507 214.029 20.7166C234.172 27.5054 246.731 40.6446 253.177 60.9003L255.026 77.11C256.684 82.322 254.598 106.573 253.177 111.854C247.654 132.385 235.891 122.136 216.799 143.155Z" fill="#2F2E41"/>
<path d="M281.97 354.912L280.21 217.869C280.119 212.063 277.748 206.526 273.61 202.453C269.471 198.379 263.898 196.096 258.091 196.096H258.091C255.087 196.096 252.115 196.708 249.355 197.894C246.595 199.081 244.106 200.817 242.039 202.996C239.972 205.176 238.371 207.754 237.332 210.572C236.294 213.391 235.841 216.392 236 219.391L242.192 361.69L242.31 448.314C238.66 449.862 235.576 452.495 233.475 455.857C231.375 459.219 230.36 463.146 230.569 467.104C230.778 471.063 232.2 474.861 234.643 477.983C237.086 481.105 240.43 483.399 244.222 484.554C248.014 485.709 252.07 485.668 255.838 484.438C259.606 483.208 262.905 480.847 265.285 477.677C267.664 474.507 269.011 470.681 269.141 466.719C269.271 462.757 268.178 458.852 266.01 455.532L281.97 354.912Z" fill="#FFB6B6"/>
<path d="M512.649 532.214C512.649 532.214 509.928 581.159 508.678 609.073H414.988C413.06 583.669 412.41 565.006 412.41 565.006L407.284 609.073H312.582L306.711 527.459L335.083 457.13C335.083 457.13 488.84 446.467 503.103 459.994C517.356 473.512 512.649 532.214 512.649 532.214Z" fill="#2F2E41"/>
<path d="M429.801 120.483C458.064 120.483 480.977 97.5705 480.977 69.3067C480.977 41.043 458.064 18.1307 429.801 18.1307C401.537 18.1307 378.625 41.043 378.625 69.3067C378.625 97.5705 401.537 120.483 429.801 120.483Z" fill="#FFB6B6"/>
<path d="M489.451 52.6777C484.195 55.0745 480.789 72.4337 476.657 68.3981C472.526 64.3624 472.802 59.1106 467.232 57.6213C462.733 56.4134 457.893 57.7939 453.79 59.971C453.057 60.3552 452.347 60.7729 451.655 61.1883C451.198 60.883 450.743 60.5957 450.255 60.3306C446.585 58.3666 442.301 57.8848 438.287 58.9844C441.459 60.047 444.217 62.0799 446.171 64.7956C444.797 65.7158 443.407 66.6385 441.984 67.4559C430.098 74.3149 413.186 59.4003 400.675 53.7973C408.511 68.5028 404.653 74.593 397.848 89.8016L397.613 90.6676C398 86.8559 386.205 84.0153 386.889 89.381C387.374 93.1907 390.671 101.659 392.518 105.022C379.364 89.813 370.376 71.201 372.272 52.0012C372.685 47.9679 372.561 43.7124 374.641 40.2117C376.724 36.7291 381.065 34.2852 384.906 35.6133C384.581 29.4902 385.921 23.3934 388.783 17.9711C391.646 12.5487 395.925 8.00345 401.164 4.81851C406.404 1.63357 412.409 -0.0719954 418.54 -0.116874C424.672 -0.161752 430.701 1.45575 435.987 4.56365C440.898 7.44561 444.998 11.5216 449.5 15.0375C454.001 18.5534 459.191 21.6181 464.899 21.9083C468.52 22.083 472.461 21.1989 475.572 23.0744C479.175 25.2506 479.792 29.8069 480.333 34.1912C477.119 34.5081 474.072 35.7761 471.582 37.8332C474.908 37.494 478.256 38.2121 481.15 39.8854C481.205 39.9103 481.257 39.9401 481.307 39.9745C483.212 47.2203 483.017 48.8266 489.451 52.6777Z" fill="#2F2E41"/>
<path d="M312.81 481.889C356.39 430.877 341.67 365.994 324.373 300.498L327.664 203.74C327.826 198.994 329.127 194.356 331.458 190.218C333.789 186.081 337.081 182.565 341.057 179.967L385.548 150.902L402.864 125.865L450.597 130.638L477.066 158.631L506.365 180.998C513.721 186.614 519.319 194.217 522.497 202.909C525.676 211.601 526.303 221.021 524.305 230.058L496.267 356.856C496.267 356.856 507.994 422.588 500.838 429.848C493.683 437.108 475.245 429.852 489.867 438.001C507.413 447.781 523.367 445.977 514.488 454.856C505.608 463.735 516.846 476.08 516.846 476.08L312.81 481.889Z" fill="#39476D"/>
<path d="M331.442 556.027L338.708 504.265L309.718 495.989L303.983 550.988C301.584 553.188 299.846 556.014 298.965 559.147C298.083 562.281 298.093 565.598 298.994 568.726C299.894 571.854 301.65 574.669 304.062 576.854C306.475 579.039 309.449 580.508 312.651 581.095C315.852 581.683 319.154 581.366 322.186 580.179C325.217 578.993 327.857 576.985 329.809 574.38C331.762 571.776 332.949 568.678 333.237 565.436C333.526 562.194 332.904 558.935 331.442 556.027Z" fill="#FFB6B6"/>
<path d="M386.635 160.233C386.635 160.233 304.116 187.09 302.148 206.741C300.181 226.392 300.833 238.422 292.124 317.057L292.583 528.878C292.583 528.878 347.907 540.723 342.233 528.059C336.559 515.394 338.539 509.436 338.539 509.436C338.539 509.436 350.4 504.755 347.431 489.885C344.462 475.015 359.352 401.324 359.352 401.324L368.75 269.163L386.635 160.233Z" fill="#39476D"/>
<path d="M488.382 553.286L484.516 501.16L513.985 494.796L516.112 550.053C518.362 552.405 519.912 555.338 520.587 558.522C521.261 561.707 521.034 565.016 519.931 568.079C518.828 571.141 516.893 573.835 514.343 575.858C511.792 577.881 508.729 579.152 505.495 579.529C502.262 579.906 498.988 579.374 496.041 577.992C493.094 576.61 490.59 574.433 488.812 571.707C487.034 568.98 486.052 565.812 485.976 562.557C485.9 559.303 486.733 556.092 488.382 553.286H488.382Z" fill="#FFB6B6"/>
<path d="M459.179 154.73C459.179 154.73 539.766 186.924 540.445 206.661C541.124 226.399 539.686 238.36 543.237 317.397L528.933 528.735C528.933 528.735 472.953 536.939 479.443 524.672C485.932 512.406 484.346 506.33 484.346 506.33C484.346 506.33 472.816 500.884 476.751 486.24C480.686 471.596 470.644 397.089 470.644 397.089L469.905 264.596L459.179 154.73Z" fill="#39476D"/>
</g>
<defs>
<clipPath id="clip0_53_323">
<rect width="800" height="609.073" fill="white"/>
</clipPath>
</defs>
</svg>
